<svg version="1.1" id="Layer_1" xmlns="http://www.w3.org/2000/svg" xmlns:xlink="http://www.w3.org/1999/xlink" x="0px" y="0px"
	 width="100%" viewBox="0 0 512 512" enable-background="new 0 0 512 512" xml:space="preserve">
<path fill="#F7AA43" opacity="1.000000" stroke="none" 
	d="
M225.000000,0.999997 
	C246.020889,1.000000 267.041779,1.000000 288.190887,1.335630 
	C289.324646,2.112626 290.292145,2.785752 291.341858,2.957927 
	C298.404907,4.116401 305.600189,4.687133 312.539520,6.341890 
	C337.204010,12.223385 360.875854,20.717848 382.989014,33.406158 
	C399.295105,42.762432 414.864136,53.210693 428.375702,66.187424 
	C440.005524,77.356895 450.954590,89.370956 461.136932,101.880669 
	C477.329468,121.774406 489.168823,144.348785 497.909363,168.420929 
	C504.334686,186.116806 509.368378,204.238007 511.086060,223.121201 
	C511.147797,223.799881 512.336487,224.376053 513.000000,225.000000 
	C513.000000,246.020889 513.000000,267.041779 512.780579,288.191711 
	C512.083679,288.565826 511.606262,288.810913 510.803101,288.994873 
	C509.652832,288.620148 508.828308,288.306519 507.772217,287.756317 
	C503.693665,284.680267 499.846680,281.840790 495.766541,278.763916 
	C492.023987,276.014526 488.514587,273.502594 484.773743,270.752472 
	C479.354980,266.690796 474.167664,262.867279 468.697083,258.862671 
	C460.954193,253.434296 453.494507,248.187042 445.848511,242.663971 
	C438.461426,237.220444 431.260681,232.052719 423.857239,226.624100 
	C417.758636,221.956696 411.862762,217.550201 405.694672,212.934753 
	C400.945496,209.503235 396.468506,206.280670 391.722351,202.855377 
	C387.625092,199.819016 383.796936,196.985352 379.697968,193.946442 
	C368.721283,185.877579 358.047546,177.969589 347.286682,170.181961 
	C344.642578,168.268433 341.714294,166.747620 338.946045,165.031082 
	C338.975403,165.015900 338.987122,165.080978 338.843689,164.825897 
	C338.372711,164.359177 338.045197,164.147537 337.457153,163.752960 
	C331.112244,155.157486 323.158112,148.983429 313.987305,144.302063 
	C298.792786,136.545761 282.447662,134.110184 265.625946,134.088333 
	C232.164276,134.044876 198.702499,134.070221 165.240753,134.083527 
	C163.628784,134.084167 162.016861,134.241898 160.191544,134.337677 
	C160.090698,136.173950 159.940170,137.637527 159.939957,139.101135 
	C159.928574,217.844437 159.924927,296.587738 159.965103,375.330994 
	C159.965912,376.915924 160.493256,378.500610 160.971085,380.369812 
	C171.076538,388.827545 180.985870,397.000793 191.081421,405.447662 
	C197.127701,410.503906 202.987793,415.286530 209.036560,420.350189 
	C215.457535,425.772247 221.689819,430.913300 228.106445,436.335083 
	C233.843414,441.106628 239.396011,445.597473 245.131332,450.366821 
	C250.861649,455.126892 256.409241,459.608429 262.137939,464.368408 
	C268.873474,470.101868 275.427887,475.556946 282.160095,481.296265 
	C287.889313,486.059418 293.440704,490.538361 299.168365,495.301178 
	C302.893738,498.394867 306.442841,501.204681 310.154663,504.282959 
	C311.238373,505.387360 312.159363,506.223297 312.872772,507.411407 
	C305.217468,508.855713 297.764069,509.912598 290.334076,511.114349 
	C289.801666,511.200500 289.440704,512.346680 289.000000,513.000000 
	C267.979095,513.000000 246.958206,513.000000 225.812866,512.667542 
	C224.851013,511.893433 224.060471,511.235779 223.169220,511.042450 
	C209.250992,508.023834 195.183868,505.582336 181.424683,501.966492 
	C162.697418,497.045135 144.885666,489.409851 128.606033,478.980072 
	C114.132362,469.707367 100.018761,459.698669 86.722687,448.821259 
	C77.422203,441.212585 69.571381,431.771332 61.421509,422.830994 
	C48.978756,409.181335 38.827568,393.798523 30.309597,377.515961 
	C16.085859,350.326477 6.166087,321.630310 2.916273,290.888214 
	C2.843411,290.198975 1.663502,289.626801 0.999998,289.000000 
	C1.000000,267.645782 1.000000,246.291550 1.329834,224.809479 
	C2.770786,219.504562 4.028977,214.354034 4.968626,209.146042 
	C10.198197,180.161224 20.392401,152.948273 35.211948,127.609535 
	C49.891159,102.510735 68.606743,80.660240 90.719521,61.668240 
	C104.734970,49.630806 119.814209,39.169205 136.061584,30.565302 
	C163.351273,16.113878 192.242920,6.323824 223.111282,2.916813 
	C223.802948,2.840473 224.373138,1.663538 225.000000,0.999997 
z"/>
<path fill="#000000" opacity="1.000000" stroke="none" 
	d="
M513.000000,224.531342 
	C512.336487,224.376053 511.147797,223.799881 511.086060,223.121201 
	C509.368378,204.238007 504.334686,186.116806 497.909363,168.420929 
	C489.168823,144.348785 477.329468,121.774406 461.136932,101.880669 
	C450.954590,89.370956 440.005524,77.356895 428.375702,66.187424 
	C414.864136,53.210693 399.295105,42.762432 382.989014,33.406158 
	C360.875854,20.717848 337.204010,12.223385 312.539520,6.341890 
	C305.600189,4.687133 298.404907,4.116401 291.341858,2.957927 
	C290.292145,2.785752 289.324646,2.112626 288.659546,1.335630 
	C363.593719,1.000000 438.187408,1.000000 513.000000,1.000000 
	C513.000000,75.354088 513.000000,149.708389 513.000000,224.531342 
z"/>
<path fill="#000000" opacity="1.000000" stroke="none" 
	d="
M289.468658,513.000000 
	C289.440704,512.346680 289.801666,511.200500 290.334076,511.114349 
	C297.764069,509.912598 305.217468,508.855713 313.284912,507.386536 
	C318.937500,505.617676 323.970367,504.225861 329.397217,502.903229 
	C340.528625,498.926208 351.265991,494.880005 362.370850,490.898193 
	C369.956940,487.283600 377.336792,483.886475 384.361237,479.868134 
	C399.924469,470.965027 414.591675,460.671997 427.777832,448.537018 
	C436.536041,440.477112 444.596954,431.623840 452.613037,422.801361 
	C465.134033,409.020782 475.267120,393.471863 483.872253,377.052887 
	C489.567535,366.186127 494.286224,354.761841 498.773773,343.324921 
	C501.459869,336.479156 502.857452,329.127747 504.910065,321.788330 
	C504.985931,321.573059 505.039459,321.119659 505.285339,321.027222 
	C505.632416,320.631836 505.733673,320.328949 505.908936,319.620605 
	C507.698242,309.162109 509.413544,299.109070 511.128815,289.056030 
	C511.606262,288.810913 512.083679,288.565826 512.780579,288.660339 
	C513.000000,363.593719 513.000000,438.187408 513.000000,513.000000 
	C438.645905,513.000000 364.291626,513.000000 289.468658,513.000000 
z"/>
<path fill="#000000" opacity="1.000000" stroke="none" 
	d="
M0.999998,289.468658 
	C1.663502,289.626801 2.843411,290.198975 2.916273,290.888214 
	C6.166087,321.630310 16.085859,350.326477 30.309597,377.515961 
	C38.827568,393.798523 48.978756,409.181335 61.421509,422.830994 
	C69.571381,431.771332 77.422203,441.212585 86.722687,448.821259 
	C100.018761,459.698669 114.132362,469.707367 128.606033,478.980072 
	C144.885666,489.409851 162.697418,497.045135 181.424683,501.966492 
	C195.183868,505.582336 209.250992,508.023834 223.169220,511.042450 
	C224.060471,511.235779 224.851013,511.893433 225.344208,512.667542 
	C150.406296,513.000000 75.812599,513.000000 1.000000,513.000000 
	C1.000000,438.645905 1.000000,364.291626 0.999998,289.468658 
z"/>
<path fill="#000000" opacity="1.000000" stroke="none" 
	d="
M224.531342,0.999997 
	C224.373138,1.663538 223.802948,2.840473 223.111282,2.916813 
	C192.242920,6.323824 163.351273,16.113878 136.061584,30.565302 
	C119.814209,39.169205 104.734970,49.630806 90.719521,61.668240 
	C68.606743,80.660240 49.891159,102.510735 35.211948,127.609535 
	C20.392401,152.948273 10.198197,180.161224 4.968626,209.146042 
	C4.028977,214.354034 2.770786,219.504562 1.329834,224.340820 
	C1.000000,149.739456 1.000000,75.478920 1.000000,1.000000 
	C75.354088,1.000000 149.708389,1.000000 224.531342,0.999997 
z"/>
<path fill="#FFFEFE" opacity="1.000000" stroke="none" 
	d="
M160.774963,380.085388 
	C160.493256,378.500610 159.965912,376.915924 159.965103,375.330994 
	C159.924927,296.587738 159.928574,217.844437 159.939957,139.101135 
	C159.940170,137.637527 160.090698,136.173950 160.191544,134.337677 
	C162.016861,134.241898 163.628784,134.084167 165.240753,134.083527 
	C198.702499,134.070221 232.164276,134.044876 265.625946,134.088333 
	C282.447662,134.110184 298.792786,136.545761 313.987305,144.302063 
	C323.158112,148.983429 331.112244,155.157486 337.585083,164.038864 
	C338.311401,164.698792 338.649261,164.889893 338.987122,165.080978 
	C338.987122,165.080978 338.975403,165.015900 338.944366,165.391891 
	C359.214905,201.692352 347.261810,236.070923 309.037598,251.662903 
	C306.656342,252.634216 304.233612,253.503845 301.997955,254.356781 
	C309.198547,257.000885 316.337311,259.622284 323.707916,262.509552 
	C328.237579,265.971008 332.535339,269.166595 336.959717,272.663330 
	C340.023621,276.653809 342.960907,280.343109 345.966064,284.385864 
	C348.735840,293.158234 351.437805,301.577179 354.081757,310.459595 
	C355.082367,332.373993 348.861481,350.966339 330.785767,363.595459 
	C323.038910,369.008057 313.643982,372.061859 304.611938,376.191681 
	C294.816681,377.481110 285.407440,378.766266 275.534119,379.981750 
	C264.712128,379.979980 254.354218,380.047882 243.532898,380.042358 
	C232.378693,380.016754 221.687912,380.064606 210.533798,380.038177 
	C193.638641,380.004395 177.206802,380.044891 160.774963,380.085388 
M246.910065,232.897385 
	C253.712830,232.602463 260.640747,233.029007 267.294464,231.874847 
	C285.891266,228.649017 294.563934,205.372620 283.088470,190.298431 
	C282.630768,189.697174 281.789459,189.387939 280.966248,188.260452 
	C279.699097,187.030792 278.580658,185.580688 277.139618,184.608826 
	C270.094513,179.857407 262.174225,179.234680 253.079941,179.813934 
	C242.161224,179.813934 231.242508,179.813934 220.044998,179.813934 
	C220.044998,193.850540 220.044998,207.424530 219.855743,221.899582 
	C219.931839,225.271515 220.007935,228.643433 220.071365,232.517242 
	C220.369339,232.594986 220.667328,232.672729 221.897156,232.893723 
	C229.926102,232.840317 237.955032,232.786911 246.910065,232.897385 
M260.074341,278.317657 
	C246.834518,278.317657 233.594696,278.317657 220.043274,278.317657 
	C220.043274,294.879303 220.043274,310.938629 219.858826,327.898804 
	C219.858826,329.836060 219.858826,331.773315 219.858826,334.004791 
	C230.895889,334.004791 241.447083,334.004791 252.919281,334.195190 
	C257.584229,334.191193 262.256653,334.355957 266.912567,334.148773 
	C277.322449,333.685516 285.901459,329.495483 290.323090,319.794495 
	C294.914581,309.720917 294.645691,299.459351 288.069977,289.217346 
	C281.315765,279.908356 271.772461,277.645050 260.074341,278.317657 
z"/>
<path fill="#D99740" opacity="1.000000" stroke="none" 
	d="
M281.982300,481.012054 
	C275.427887,475.556946 268.873474,470.101868 262.313965,464.073669 
	C264.125946,461.559052 266.042084,459.700348 267.744720,457.663177 
	C284.240631,437.926361 300.652954,418.119507 317.182892,398.411285 
	C338.726685,372.725159 360.387238,347.136963 381.938385,321.456970 
	C400.608490,299.210022 419.236694,276.927490 437.779510,254.574509 
	C440.807007,250.924957 443.296631,246.829269 446.034851,242.939774 
	C453.494507,248.187042 460.954193,253.434296 468.632233,259.207886 
	C467.875061,261.651947 467.210938,263.826935 465.873627,265.445831 
	C456.989166,276.201172 447.969482,286.844940 438.976807,297.510712 
	C424.203217,315.032837 409.357788,332.494781 394.650940,350.072693 
	C376.854401,371.343445 359.202606,392.735199 341.428741,414.024963 
	C324.400238,434.421936 307.362000,454.811859 290.139496,475.044403 
	C288.015198,477.539948 284.729706,479.046967 281.982300,481.012054 
z"/>
<path fill="#D09240" opacity="1.000000" stroke="none" 
	d="
M445.848511,242.663971 
	C443.296631,246.829269 440.807007,250.924957 437.779510,254.574509 
	C419.236694,276.927490 400.608490,299.210022 381.938385,321.456970 
	C360.387238,347.136963 338.726685,372.725159 317.182892,398.411285 
	C300.652954,418.119507 284.240631,437.926361 267.744720,457.663177 
	C266.042084,459.700348 264.125946,461.559052 262.132843,463.795288 
	C256.409241,459.608429 250.861649,455.126892 245.321777,450.078278 
	C246.713821,448.097382 248.197845,446.767365 249.467499,445.257111 
	C267.304260,424.039581 285.138794,402.819977 302.864868,381.510223 
	C304.027954,380.112000 304.307404,377.978760 304.997864,376.187408 
	C313.643982,372.061859 323.038910,369.008057 330.785767,363.595459 
	C348.861481,350.966339 355.082367,332.373993 354.423828,310.427429 
	C355.973694,309.047791 357.330292,308.337982 358.242981,307.254303 
	C378.584595,283.101135 398.904510,258.929535 419.135773,234.683960 
	C421.088318,232.343948 422.433075,229.496765 424.059998,226.885010 
	C431.260681,232.052719 438.461426,237.220444 445.848511,242.663971 
z"/>
<path fill="#DF9B41" opacity="1.000000" stroke="none" 
	d="
M282.160095,481.296265 
	C284.729706,479.046967 288.015198,477.539948 290.139496,475.044403 
	C307.362000,454.811859 324.400238,434.421936 341.428741,414.024963 
	C359.202606,392.735199 376.854401,371.343445 394.650940,350.072693 
	C409.357788,332.494781 424.203217,315.032837 438.976807,297.510712 
	C447.969482,286.844940 456.989166,276.201172 465.873627,265.445831 
	C467.210938,263.826935 467.875061,261.651947 468.915466,259.388977 
	C474.167664,262.867279 479.354980,266.690796 484.766418,271.133698 
	C484.306061,273.392090 483.936432,275.277557 482.880859,276.626099 
	C478.992401,281.593750 474.882721,286.388519 470.845337,291.239258 
	C460.217407,304.008270 449.621094,316.803864 438.942261,329.530182 
	C427.409729,343.273865 415.761932,356.920837 404.229736,370.664795 
	C389.601440,388.098633 375.038849,405.587646 360.448059,423.052948 
	C347.561371,438.478424 334.763672,453.979492 321.753845,469.300415 
	C314.345581,478.024719 306.590851,486.454773 298.992126,495.017334 
	C293.440704,490.538361 287.889313,486.059418 282.160095,481.296265 
z"/>
<path fill="#EAA342" opacity="1.000000" stroke="none" 
	d="
M510.803101,288.994873 
	C509.413544,299.109070 507.698242,309.162109 505.752563,319.784607 
	C505.332886,320.591339 505.171967,320.846527 505.039459,321.119659 
	C505.039459,321.119659 504.985931,321.573059 504.601746,321.903748 
	C501.741272,325.730927 499.446106,329.374481 496.751099,332.693298 
	C491.105804,339.645325 485.230865,346.410431 479.484375,353.280823 
	C466.396973,368.927887 453.327332,384.589813 440.255737,400.250092 
	C427.396454,415.655884 414.603760,431.117798 401.669159,446.460114 
	C391.193176,458.886108 380.607452,471.221161 369.936218,483.479797 
	C367.582306,486.183899 364.662567,488.395416 362.003387,490.833771 
	C351.265991,494.880005 340.528625,498.926208 329.512329,502.595703 
	C332.059021,499.957916 335.343842,498.085358 337.637512,495.374237 
	C355.763672,473.948639 373.666321,452.334198 391.705505,430.834717 
	C411.453583,407.298615 431.323853,383.865021 451.048401,360.309296 
	C469.066620,338.791321 487.011871,317.211456 504.826874,295.525452 
	C506.485107,293.506897 506.972656,290.526642 508.003754,287.992920 
	C508.828308,288.306519 509.652832,288.620148 510.803101,288.994873 
z"/>
<path fill="#E6A041" opacity="1.000000" stroke="none" 
	d="
M507.772217,287.756317 
	C506.972656,290.526642 506.485107,293.506897 504.826874,295.525452 
	C487.011871,317.211456 469.066620,338.791321 451.048401,360.309296 
	C431.323853,383.865021 411.453583,407.298615 391.705505,430.834717 
	C373.666321,452.334198 355.763672,473.948639 337.637512,495.374237 
	C335.343842,498.085358 332.059021,499.957916 329.118317,502.526489 
	C323.970367,504.225861 318.937500,505.617676 313.492493,507.034363 
	C312.159363,506.223297 311.238373,505.387360 310.342010,504.003174 
	C311.751984,502.040649 313.223450,500.700073 314.507965,499.199463 
	C320.556854,492.133209 326.579651,485.044220 332.565063,477.924072 
	C345.283417,462.794495 357.989075,447.654236 370.669647,432.493011 
	C385.267242,415.039764 399.802094,397.533966 414.420074,380.097870 
	C427.438263,364.570038 440.562195,349.130859 453.585358,333.607178 
	C466.607635,318.084503 479.634918,302.564514 492.463501,286.882568 
	C494.223541,284.731018 494.848969,281.651337 495.999695,279.001343 
	C499.846680,281.840790 503.693665,284.680267 507.772217,287.756317 
z"/>
<path fill="#E39E41" opacity="1.000000" stroke="none" 
	d="
M495.766541,278.763916 
	C494.848969,281.651337 494.223541,284.731018 492.463501,286.882568 
	C479.634918,302.564514 466.607635,318.084503 453.585358,333.607178 
	C440.562195,349.130859 427.438263,364.570038 414.420074,380.097870 
	C399.802094,397.533966 385.267242,415.039764 370.669647,432.493011 
	C357.989075,447.654236 345.283417,462.794495 332.565063,477.924072 
	C326.579651,485.044220 320.556854,492.133209 314.507965,499.199463 
	C313.223450,500.700073 311.751984,502.040649 310.179321,503.734711 
	C306.442841,501.204681 302.893738,498.394867 299.168396,495.301208 
	C306.590851,486.454773 314.345581,478.024719 321.753845,469.300415 
	C334.763672,453.979492 347.561371,438.478424 360.448059,423.052948 
	C375.038849,405.587646 389.601440,388.098633 404.229736,370.664795 
	C415.761932,356.920837 427.409729,343.273865 438.942261,329.530182 
	C449.621094,316.803864 460.217407,304.008270 470.845337,291.239258 
	C474.882721,286.388519 478.992401,281.593750 482.880859,276.626099 
	C483.936432,275.277557 484.306061,273.392090 484.997864,271.371857 
	C488.514587,273.502594 492.023987,276.014526 495.766541,278.763916 
z"/>
<path fill="#C78D3F" opacity="1.000000" stroke="none" 
	d="
M423.857239,226.624100 
	C422.433075,229.496765 421.088318,232.343948 419.135773,234.683960 
	C398.904510,258.929535 378.584595,283.101135 358.242981,307.254303 
	C357.330292,308.337982 355.973694,309.047791 354.481812,309.963928 
	C351.437805,301.577179 348.735840,293.158234 346.308716,284.310516 
	C348.052002,282.593414 349.711426,281.466736 350.959473,279.991913 
	C364.262054,264.272766 377.569031,248.556213 390.720581,232.710892 
	C395.998932,226.351379 400.896179,219.675568 405.966888,213.143707 
	C411.862762,217.550201 417.758636,221.956696 423.857239,226.624100 
z"/>
<path fill="#CA8F3F" opacity="1.000000" stroke="none" 
	d="
M304.611908,376.191681 
	C304.307404,377.978760 304.027954,380.112000 302.864868,381.510223 
	C285.138794,402.819977 267.304260,424.039581 249.467499,445.257111 
	C248.197845,446.767365 246.713821,448.097382 245.139053,449.799774 
	C239.396011,445.597473 233.843414,441.106628 228.417572,436.178955 
	C231.399658,433.248627 234.597931,431.050720 237.047897,428.207916 
	C245.367828,418.554016 253.511902,408.744110 261.547394,398.851044 
	C266.528778,392.718109 271.192078,386.326752 275.998169,380.051392 
	C285.407440,378.766266 294.816681,377.481110 304.611908,376.191681 
z"/>
<path fill="#B78440" opacity="1.000000" stroke="none" 
	d="
M323.476044,262.243683 
	C316.337311,259.622284 309.198547,257.000885 301.997955,254.356781 
	C304.233612,253.503845 306.656342,252.634216 309.037598,251.662903 
	C347.261810,236.070923 359.214905,201.692352 338.914978,165.407074 
	C341.714294,166.747620 344.642578,168.268433 347.286682,170.181961 
	C358.047546,177.969589 368.721283,185.877579 379.624451,194.269836 
	C378.530334,196.713593 377.387207,198.751373 375.921844,200.522583 
	C369.586670,208.180206 363.197845,215.794464 356.752991,223.360153 
	C345.690430,236.346664 334.571411,249.285095 323.476044,262.243683 
z"/>
<path fill="#C38A3E" opacity="1.000000" stroke="none" 
	d="
M275.534119,379.981750 
	C271.192078,386.326752 266.528778,392.718109 261.547394,398.851044 
	C253.511902,408.744110 245.367828,418.554016 237.047897,428.207916 
	C234.597931,431.050720 231.399658,433.248627 228.233215,435.898193 
	C221.689819,430.913300 215.457535,425.772247 209.412170,420.311768 
	C211.838242,418.381226 214.478302,417.119720 216.243317,415.095276 
	C222.133423,408.339325 227.793854,401.376831 233.377029,394.361969 
	C237.063583,389.730072 240.466431,384.872375 243.996307,380.115784 
	C254.354218,380.047882 264.712128,379.979980 275.534119,379.981750 
z"/>
<path fill="#C1893E" opacity="1.000000" stroke="none" 
	d="
M405.694672,212.934753 
	C400.896179,219.675568 395.998932,226.351379 390.720581,232.710892 
	C377.569031,248.556213 364.262054,264.272766 350.959473,279.991913 
	C349.711426,281.466736 348.052002,282.593414 346.240875,283.957092 
	C342.960907,280.343109 340.023621,276.653809 337.134735,272.348328 
	C338.805267,269.640961 340.360565,267.493652 342.060089,265.467346 
	C356.506348,248.243530 371.052917,231.102982 385.376678,213.778091 
	C388.026764,210.572769 389.808838,206.649841 391.991516,203.058105 
	C396.468506,206.280670 400.945496,209.503235 405.694672,212.934753 
z"/>
<path fill="#BC863E" opacity="1.000000" stroke="none" 
	d="
M391.722351,202.855392 
	C389.808838,206.649841 388.026764,210.572769 385.376678,213.778091 
	C371.052917,231.102982 356.506348,248.243530 342.060089,265.467346 
	C340.360565,267.493652 338.805267,269.640961 337.008118,272.047180 
	C332.535339,269.166595 328.237579,265.971008 323.707916,262.509552 
	C334.571411,249.285095 345.690430,236.346664 356.752991,223.360153 
	C363.197845,215.794464 369.586670,208.180206 375.921844,200.522583 
	C377.387207,198.751373 378.530334,196.713593 379.895264,194.475067 
	C383.796936,196.985352 387.625092,199.819016 391.722351,202.855392 
z"/>
<path fill="#BA853E" opacity="1.000000" stroke="none" 
	d="
M243.532898,380.042358 
	C240.466431,384.872375 237.063583,389.730072 233.377029,394.361969 
	C227.793854,401.376831 222.133423,408.339325 216.243317,415.095276 
	C214.478302,417.119720 211.838242,418.381226 209.223480,420.030731 
	C202.987793,415.286530 197.127701,410.503906 191.314667,405.186768 
	C197.361649,397.819977 203.407318,391.026825 209.312683,384.113800 
	C210.208252,383.065430 210.451904,381.460175 210.997116,380.112488 
	C221.687912,380.064606 232.378693,380.016754 243.532898,380.042358 
z"/>
<path fill="#B2813F" opacity="1.000000" stroke="none" 
	d="
M210.533798,380.038208 
	C210.451904,381.460175 210.208252,383.065430 209.312683,384.113800 
	C203.407318,391.026825 197.361649,397.819977 191.128479,404.913147 
	C180.985870,397.000793 171.076538,388.827545 160.971085,380.369812 
	C177.206802,380.044891 193.638641,380.004395 210.533798,380.038208 
z"/>
<path fill="#B78440" opacity="1.000000" stroke="none" 
	d="
M338.843689,164.825897 
	C338.649261,164.889893 338.311401,164.698792 337.845612,164.221802 
	C338.045197,164.147537 338.372711,164.359177 338.843689,164.825897 
z"/>
<path fill="#EFA542" opacity="1.000000" stroke="none" 
	d="
M362.370850,490.898193 
	C364.662567,488.395416 367.582306,486.183899 369.936218,483.479797 
	C380.607452,471.221161 391.193176,458.886108 401.669159,446.460114 
	C414.603760,431.117798 427.396454,415.655884 440.255737,400.250092 
	C453.327332,384.589813 466.396973,368.927887 479.484375,353.280823 
	C485.230865,346.410431 491.105804,339.645325 496.751099,332.693298 
	C499.446106,329.374481 501.741272,325.730927 504.525879,322.119049 
	C502.857452,329.127747 501.459869,336.479156 498.773773,343.324921 
	C494.286224,354.761841 489.567535,366.186127 483.872253,377.052887 
	C475.267120,393.471863 465.134033,409.020782 452.613037,422.801361 
	C444.596954,431.623840 436.536041,440.477112 427.777832,448.537018 
	C414.591675,460.671997 399.924469,470.965027 384.361237,479.868134 
	C377.336792,483.886475 369.956940,487.283600 362.370850,490.898193 
z"/>
<path fill="#EFA542" opacity="1.000000" stroke="none" 
	d="
M505.285339,321.027222 
	C505.171967,320.846527 505.332886,320.591339 505.678528,320.190063 
	C505.733673,320.328949 505.632416,320.631836 505.285339,321.027222 
z"/>
<path fill="#B2813F" opacity="1.000000" stroke="none" 
	d="
M251.998276,334.004791 
	C241.447083,334.004791 230.895889,334.004791 219.858826,334.004791 
	C219.858826,331.773315 219.858826,329.836060 220.299530,327.418274 
	C221.895630,326.076813 223.265274,325.397675 224.173523,324.327118 
	C234.230057,312.473206 244.285248,300.616486 254.171524,288.621033 
	C256.747406,285.495636 258.736389,281.886566 260.994934,278.499664 
	C271.772461,277.645050 281.315765,279.908356 287.875305,289.717407 
	C279.743225,299.547272 271.703888,308.793030 263.909424,318.240784 
	C259.721985,323.316376 255.954987,328.738831 251.998276,334.004791 
z"/>
<path fill="#956F3B" opacity="1.000000" stroke="none" 
	d="
M254.001129,180.002625 
	C262.174225,179.234680 270.094513,179.857407 277.139618,184.608826 
	C278.580658,185.580688 279.699097,187.030792 280.751160,188.776123 
	C279.667114,190.056366 278.681396,190.723114 277.946960,191.600281 
	C268.505005,202.877274 259.030701,214.128769 249.746643,225.534897 
	C248.072052,227.592270 247.217255,230.316910 245.983978,232.733490 
	C237.955032,232.786911 229.926102,232.840317 221.304276,232.676941 
	C220.526169,232.278183 220.317047,232.129913 220.084030,232.015366 
	C220.007935,228.643433 219.931839,225.271515 220.282944,221.373825 
	C221.767868,220.076569 223.030151,219.477936 223.851105,218.506363 
	C230.697052,210.404404 237.593246,202.338455 244.197998,194.041687 
	C247.745834,189.584991 250.751053,184.696350 254.001129,180.002625 
z"/>
<path fill="#A87A3C" opacity="1.000000" stroke="none" 
	d="
M260.534637,278.408661 
	C258.736389,281.886566 256.747406,285.495636 254.171524,288.621033 
	C244.285248,300.616486 234.230057,312.473206 224.173523,324.327118 
	C223.265274,325.397675 221.895630,326.076813 220.391754,326.967834 
	C220.043274,310.938629 220.043274,294.879303 220.043274,278.317657 
	C233.594696,278.317657 246.834518,278.317657 260.534637,278.408661 
z"/>
<path fill="#A0763F" opacity="1.000000" stroke="none" 
	d="
M246.447021,232.815430 
	C247.217255,230.316910 248.072052,227.592270 249.746643,225.534897 
	C259.030701,214.128769 268.505005,202.877274 277.946960,191.600281 
	C278.681396,190.723114 279.667114,190.056366 280.831482,189.117218 
	C281.789459,189.387939 282.630768,189.697174 283.088470,190.298431 
	C294.563934,205.372620 285.891266,228.649017 267.294464,231.874847 
	C260.640747,233.029007 253.712830,232.602463 246.447021,232.815430 
z"/>
<path fill="#BA8640" opacity="1.000000" stroke="none" 
	d="
M252.458771,334.099976 
	C255.954987,328.738831 259.721985,323.316376 263.909424,318.240784 
	C271.703888,308.793030 279.743225,299.547272 287.991272,290.042542 
	C294.645691,299.459351 294.914581,309.720917 290.323090,319.794495 
	C285.901459,329.495483 277.322449,333.685516 266.912567,334.148773 
	C262.256653,334.355957 257.584229,334.191193 252.458771,334.099976 
z"/>
<path fill="#8C693A" opacity="1.000000" stroke="none" 
	d="
M253.540527,179.908264 
	C250.751053,184.696350 247.745834,189.584991 244.197998,194.041687 
	C237.593246,202.338455 230.697052,210.404404 223.851105,218.506363 
	C223.030151,219.477936 221.767868,220.076569 220.377563,220.923309 
	C220.044998,207.424530 220.044998,193.850540 220.044998,179.813934 
	C231.242508,179.813934 242.161224,179.813934 253.540527,179.908264 
z"/>
<path fill="#A0763F" opacity="1.000000" stroke="none" 
	d="
M220.077698,232.266296 
	C220.317047,232.129913 220.526169,232.278183 220.838348,232.605316 
	C220.667328,232.672729 220.369339,232.594986 220.077698,232.266296 
z"/>
</svg>